<?xml version="1.0" encoding="iso-8859-1"?>
<!-- Generator: Adobe Illustrator 18.0.0, SVG Export Plug-In . SVG Version: 6.00 Build 0)  -->
<!DOCTYPE svg PUBLIC "-//W3C//DTD SVG 1.1//EN" "http://www.w3.org/Graphics/SVG/1.1/DTD/svg11.dtd">
<svg version="1.1" id="Layer_1" xmlns:sketch="http://www.bohemiancoding.com/sketch/ns"
	 xmlns="http://www.w3.org/2000/svg" xmlns:xlink="http://www.w3.org/1999/xlink" x="0px" y="0px" viewBox="0 0 17 17"
	 style="enable-background:new 0 0 17 17;" xml:space="preserve">
<title>add</title>
<desc>Created with Sketch Beta.</desc>
<g id="Page-1" sketch:type="MSPage">
	<g id="main-screen" transform="translate(-423.000000, -121.000000)" sketch:type="MSArtboardGroup">
		<g id="TOP-BAR" transform="translate(150.000000, 110.000000)" sketch:type="MSLayerGroup">
			<path id="add" sketch:type="MSShapeGroup" style="fill:#FF5151;" d="M273,13.508c0-1.385,1.115-2.508,2.508-2.508h11.983
				c1.385,0,2.508,1.115,2.508,2.508v11.983c0,1.385-1.115,2.508-2.508,2.508h-11.983c-1.385,0-2.508-1.115-2.508-2.508V13.508
				L273,13.508z M274,13.508L274,13.508v11.983c0,0.838,0.672,1.508,1.508,1.508h11.983c0.838,0,1.508-0.672,1.508-1.508V13.508
				c0-0.838-0.672-1.508-1.508-1.508h-11.983C274.671,12,274,12.672,274,13.508L274,13.508z M281,15h1v9h-1V15z M277,19h9v1h-9V19z"
				/>
		</g>
	</g>
</g>
</svg>
