<?xml version="1.0" encoding="UTF-8" standalone="no"?>
<svg width="20px" height="20px" viewBox="0 0 20 20" version="1.1" xmlns="http://www.w3.org/2000/svg" xmlns:xlink="http://www.w3.org/1999/xlink" xmlns:sketch="http://www.bohemiancoding.com/sketch/ns">
    <!-- Generator: Sketch Beta 3.3 (11970) - http://www.bohemiancoding.com/sketch -->
    <title>back</title>
    <desc>Created with Sketch Beta.</desc>
    <defs></defs>
    <g id="Page-1" stroke="none" stroke-width="1" fill="none" fill-rule="evenodd" sketch:type="MSPage">
        <g id="task-screen" sketch:type="MSArtboardGroup" transform="translate(-219.000000, -120.000000)">
            <g id="top-bar" sketch:type="MSLayerGroup" transform="translate(150.000000, 110.000000)">
                <g id="back" transform="translate(69.000000, 10.000000)" sketch:type="MSShapeGroup">
                    <path d="M10,19 L10,19 C14.9705627,19 19,14.9705627 19,10 C19,5.02943725 14.9705627,1 10,1 C5.02943725,1 1,5.02943725 1,10 C1,14.9705627 5.02943725,19 10,19 L10,19 Z M10,20 L10,20 C4.4771525,20 0,15.5228475 0,10 C0,4.4771525 4.4771525,0 10,0 C15.5228475,0 20,4.4771525 20,10 C20,15.5228475 15.5228475,20 10,20 L10,20 Z" id="Shape" fill-opacity="0.15" fill="#000000"></path>
                    <path d="M12,5 L7,10 L12,15" id="Line" stroke="#FF5151" stroke-width="1.5" stroke-linecap="square"></path>
                </g>
            </g>
        </g>
    </g>
</svg>