<?xml version="1.0" encoding="UTF-8" standalone="no"?>
<svg width="21px" height="21px" viewBox="0 0 21 21" version="1.1" xmlns="http://www.w3.org/2000/svg" xmlns:xlink="http://www.w3.org/1999/xlink" xmlns:sketch="http://www.bohemiancoding.com/sketch/ns">
    <!-- Generator: Sketch Beta 3.3 (11970) - http://www.bohemiancoding.com/sketch -->
    <title>close</title>
    <desc>Created with Sketch Beta.</desc>
    <defs></defs>
    <g id="Page-1" stroke="none" stroke-width="1" fill="none" fill-rule="evenodd" sketch:type="MSPage">
        <g id="add-new-task" sketch:type="MSArtboardGroup" transform="translate(-420.000000, -120.000000)">
            <g id="TOP-BAR" sketch:type="MSLayerGroup" transform="translate(150.000000, 110.000000)">
                <g id="close" transform="translate(270.000000, 10.000000)" sketch:type="MSShapeGroup">
                    <path d="M10.5,20 L10.5,20 C15.7467051,20 20,15.7467051 20,10.5 C20,5.25329488 15.7467051,1 10.5,1 C5.25329488,1 1,5.25329488 1,10.5 C1,15.7467051 5.25329488,20 10.5,20 L10.5,20 Z M10.5,21 L10.5,21 C4.70101013,21 0,16.2989899 0,10.5 C0,4.70101013 4.70101013,0 10.5,0 C16.2989899,0 21,4.70101013 21,10.5 C21,16.2989899 16.2989899,21 10.5,21 L10.5,21 Z" id="Shape" fill="#FF5151"></path>
                    <path d="M14,7 L7,14" id="Line" stroke="#FF5151" stroke-width="1.5" stroke-linecap="square"></path>
                    <path d="M14,14 L7,7" id="Line-Copy-108" stroke="#FF5151" stroke-width="1.5" stroke-linecap="square"></path>
                </g>
            </g>
        </g>
    </g>
</svg>