<?xml version="1.0" encoding="UTF-8" standalone="no"?>
<svg width="18px" height="18px" viewBox="0 0 18 18" version="1.1" xmlns="http://www.w3.org/2000/svg" xmlns:xlink="http://www.w3.org/1999/xlink" xmlns:sketch="http://www.bohemiancoding.com/sketch/ns">
    <!-- Generator: Sketch Beta 3.3 (11970) - http://www.bohemiancoding.com/sketch -->
    <title>add copy</title>
    <desc>Created with Sketch Beta.</desc>
    <defs></defs>
    <g id="Page-1" stroke="none" stroke-width="1" fill="none" fill-rule="evenodd" sketch:type="MSPage">
        <g id="task-screen" sketch:type="MSArtboardGroup" transform="translate(-423.000000, -120.000000)" fill="#FF5151">
            <g id="top-bar" sketch:type="MSLayerGroup" transform="translate(150.000000, 110.000000)">
                <path d="M275.503252,11 C274.119812,11 273,12.1183308 273,13.5027601 L273,25.4972399 C273,26.8804355 274.118358,28 275.50276,28 L287.49724,28 C288.881645,28 290,26.8872839 290,25.5018986 L290,15.5 L289,15.5 L289,25.5018986 C289,26.3338644 288.330489,27 287.49724,27 L275.50276,27 C274.670885,27 274,26.3283919 274,25.4972399 L274,13.5027601 C274,12.6709121 274.671801,12 275.503252,12 L282,12 L282,11 L275.503252,11 Z M276.125,25.125 C276.719056,24.9345891 277.465167,24.6888372 279.364444,21.2905194 C279.413556,21.2023488 279.608111,21.6075581 279.430556,22.2519535 C279.961333,22.0756124 279.902778,21.255814 279.902778,21.255814 C279.902778,21.255814 280.286222,21.3477364 280.316444,21.9593023 C280.670611,21.6666512 280.493056,21.253 280.138889,20.9012558 C280.788667,20.1977674 282.027778,21.4903101 282.027778,21.4903101 C282.027778,21.4903101 282.558556,20.7868217 282.558556,20.1424264 C285.569444,18.4418605 286.277778,16.5077364 286.277778,16.5077364 C286.277778,16.5077364 285.391889,16.6840775 284.861111,16.6249845 C286.100222,16.5668295 287.340278,14.7490155 287.340278,14.7490155 C287.340278,14.7490155 286.927556,14.5726744 286.218278,14.6317674 C287.753,14.2800233 289.110167,13.0484496 289.110167,13.0484496 C289.110167,13.0484496 288.343278,13.1075426 287.398833,13.1075426 C289.367056,13.1075426 291,10 291,10 C291,10 281.299611,11.2503333 276.125,25.125 Z" id="add-copy" sketch:type="MSShapeGroup"></path>
            </g>
        </g>
    </g>
</svg>