<?xml version="1.0" encoding="UTF-8" standalone="no"?>
<svg width="19px" height="19px" viewBox="0 0 19 19" version="1.1" xmlns="http://www.w3.org/2000/svg" xmlns:xlink="http://www.w3.org/1999/xlink" xmlns:sketch="http://www.bohemiancoding.com/sketch/ns">
    <!-- Generator: Sketch 3.3.2 (12043) - http://www.bohemiancoding.com/sketch -->
    <title>Rectangle 181 + Rectangle 181 Copy + Shape</title>
    <desc>Created with Sketch.</desc>
    <defs></defs>
    <g id="presentation" stroke="none" stroke-width="1" fill="none" fill-rule="evenodd" sketch:type="MSPage">
        <g id="presentation-mode" sketch:type="MSArtboardGroup" transform="translate(-1981.000000, -339.000000)" fill="#FF8000">
            <g id="timeline" sketch:type="MSLayerGroup" transform="translate(1690.000000, 330.000000)">
                <g transform="translate(0.000000, -1.000000)" id="topbar" sketch:type="MSShapeGroup">
                    <g transform="translate(20.000000, 0.000000)">
                        <g id="button" transform="translate(267.000000, 6.000000)">
                            <g id="Rectangle-181-+-Rectangle-181-Copy-+-Shape" transform="translate(4.000000, 4.000000)">
                                <rect id="Rectangle-181" x="9" y="4" width="1" height="11"></rect>
                                <rect id="Rectangle-181-Copy" x="4" y="9" width="11" height="1"></rect>
                                <path d="M9.5,18 L9.5,18 C14.1944204,18 18,14.1944204 18,9.5 C18,4.80557963 14.1944204,1 9.5,1 C4.80557963,1 1,4.80557963 1,9.5 C1,14.1944204 4.80557963,18 9.5,18 L9.5,18 Z M9.5,19 L9.5,19 C4.25329488,19 0,14.7467051 0,9.5 C0,4.25329488 4.25329488,0 9.5,0 C14.7467051,0 19,4.25329488 19,9.5 C19,14.7467051 14.7467051,19 9.5,19 L9.5,19 Z" id="Shape"></path>
                            </g>
                        </g>
                    </g>
                </g>
            </g>
        </g>
    </g>
</svg>