<?xml version="1.0" encoding="UTF-8" standalone="no"?>
<svg width="15px" height="15px" viewBox="0 0 15 15" version="1.1" xmlns="http://www.w3.org/2000/svg" xmlns:xlink="http://www.w3.org/1999/xlink" xmlns:sketch="http://www.bohemiancoding.com/sketch/ns">
    <!-- Generator: Sketch 3.3.2 (12043) - http://www.bohemiancoding.com/sketch -->
    <title>add button</title>
    <desc>Created with Sketch.</desc>
    <defs></defs>
    <g id="presentation" stroke="none" stroke-width="1" fill="none" fill-rule="evenodd" sketch:type="MSPage">
        <g id="presentation-mode" sketch:type="MSArtboardGroup" transform="translate(-1988.000000, -334.000000)" fill="#FF8000">
            <g id="timeline" sketch:type="MSLayerGroup" transform="translate(1690.000000, 330.000000)">
                <g id="top" sketch:type="MSShapeGroup">
                    <g>
                        <g id="title-row">
                            <g id="add-button" transform="translate(298.000000, 4.000000)">
                                <path d="M7.5,15 L7.5,15 C3.35786438,15 0,11.6421356 0,7.5 C0,3.35786438 3.35786438,0 7.5,0 C11.6421356,0 15,3.35786438 15,7.5 C15,11.6421356 11.6421356,15 7.5,15 L7.5,15 Z" id="Shape" opacity="0.2"></path>
                                <path d="M7.5,14 L7.5,14 C11.0898509,14 14,11.0898509 14,7.5 C14,3.91014913 11.0898509,1 7.5,1 C3.91014913,1 1,3.91014913 1,7.5 C1,11.0898509 3.91014913,14 7.5,14 L7.5,14 Z M7.5,15 L7.5,15 C3.35786438,15 0,11.6421356 0,7.5 C0,3.35786438 3.35786438,0 7.5,0 C11.6421356,0 15,3.35786438 15,7.5 C15,11.6421356 11.6421356,15 7.5,15 L7.5,15 Z" id="Shape-Copy"></path>
                                <rect id="Rectangle-181" x="7" y="3" width="1" height="9"></rect>
                                <rect id="Rectangle-181-Copy" x="3" y="7" width="9" height="1"></rect>
                            </g>
                        </g>
                    </g>
                </g>
            </g>
        </g>
    </g>
</svg>