<?xml version="1.0" encoding="UTF-8" standalone="no"?>
<svg width="16px" height="16px" viewBox="0 0 16 16" version="1.1" xmlns="http://www.w3.org/2000/svg" xmlns:xlink="http://www.w3.org/1999/xlink" xmlns:sketch="http://www.bohemiancoding.com/sketch/ns">
    <!-- Generator: Sketch 3.3.2 (12043) - http://www.bohemiancoding.com/sketch -->
    <title>inactive</title>
    <desc>Created with Sketch.</desc>
    <defs></defs>
    <g id="presentation" stroke="none" stroke-width="1" fill="none" fill-rule="evenodd" sketch:type="MSPage">
        <g id="presentation-mode" sketch:type="MSArtboardGroup" transform="translate(-1879.000000, -357.000000)" fill="#98AAB3">
            <g id="timeline" sketch:type="MSLayerGroup" transform="translate(1690.000000, 330.000000)">
                <g id="top" sketch:type="MSShapeGroup">
                    <g>
                        <g id="main-row-bigger" transform="translate(0.000000, 20.000000)">
                            <g id="archive" transform="translate(189.000000, 7.000000)">
                                <g id="inactive">
                                    <path d="M1,3.00947762 L1,3.00947762 L1,12.9905224 C1,14.1068145 1.8953964,15 3.00947762,15 L12.9905224,15 C14.1068145,15 15,14.1046036 15,12.9905224 L15,3.00947762 C15,1.89318549 14.1046036,1 12.9905224,1 L3.00947762,1 C1.89318549,1 1,1.8953964 1,3.00947762 L1,3.00947762 Z M0,3.00947762 C0,1.34738902 1.33663106,0 3.00947762,0 L12.9905224,0 C14.652611,0 16,1.33663106 16,3.00947762 L16,12.9905224 C16,14.652611 14.6633689,16 12.9905224,16 L3.00947762,16 C1.34738902,16 0,14.6633689 0,12.9905224 L0,3.00947762 L0,3.00947762 Z" id="Shape"></path>
                                    <path d="M3.14644661,8.85355339 L6.14644661,11.8535534 L6.52615459,12.2332614 L6.87784454,11.8274653 L13.3778445,4.32746527 L12.6221555,3.67253473 L6.12215546,11.1725347 L6.85355339,11.1464466 L3.85355339,8.14644661 L3.14644661,8.85355339 L3.14644661,8.85355339 Z" id="Shape"></path>
                                </g>
                            </g>
                        </g>
                    </g>
                </g>
            </g>
        </g>
    </g>
</svg>