<?xml version="1.0" encoding="UTF-8" standalone="no"?>
<svg width="16px" height="16px" viewBox="0 0 16 16" version="1.1" xmlns="http://www.w3.org/2000/svg" xmlns:xlink="http://www.w3.org/1999/xlink" xmlns:sketch="http://www.bohemiancoding.com/sketch/ns">
    <!-- Generator: Sketch 3.3.2 (12043) - http://www.bohemiancoding.com/sketch -->
    <title>active</title>
    <desc>Created with Sketch.</desc>
    <defs></defs>
    <g id="presentation" stroke="none" stroke-width="1" fill="none" fill-rule="evenodd" sketch:type="MSPage">
        <g id="presentation-mode" sketch:type="MSArtboardGroup" transform="translate(-1879.000000, -357.000000)" fill="#FF8000">
            <g id="timeline" sketch:type="MSLayerGroup" transform="translate(1690.000000, 330.000000)">
                <g id="top" sketch:type="MSShapeGroup">
                    <g>
                        <g id="main-row-bigger" transform="translate(0.000000, 20.000000)">
                            <g id="archive" transform="translate(189.000000, 7.000000)">
                                <g id="active">
                                    <path d="M1,3.99620271 L1,3.99620271 L1,12.0037973 C1,13.6587579 2.34131869,15 3.99620271,15 L12.0037973,15 C13.6587579,15 15,13.6586813 15,12.0037973 L15,3.99620271 C15,2.34124206 13.6586813,1 12.0037973,1 L3.99620271,1 C2.34124206,1 1,2.34131869 1,3.99620271 L1,3.99620271 Z M0,3.99620271 C0,1.78916089 1.78883037,0 3.99620271,0 L12.0037973,0 C14.2108391,0 16,1.78883037 16,3.99620271 L16,12.0037973 C16,14.2108391 14.2111696,16 12.0037973,16 L3.99620271,16 C1.78916089,16 0,14.2111696 0,12.0037973 L0,3.99620271 L0,3.99620271 Z" id="Shape"></path>
                                    <path d="M0,3.99620271 C0,1.78916089 1.78883037,0 3.99620271,0 L12.0037973,0 C14.2108391,0 16,1.78883037 16,3.99620271 L16,12.0037973 C16,14.2108391 14.2111696,16 12.0037973,16 L3.99620271,16 C1.78916089,16 0,14.2111696 0,12.0037973 L0,3.99620271 L0,3.99620271 Z" id="Shape-Copy-2" opacity="0.2"></path>
                                    <path d="M3.14644661,8.85355339 L6.14644661,11.8535534 L6.52615459,12.2332614 L6.87784454,11.8274653 L13.3778445,4.32746527 L12.6221555,3.67253473 L6.12215546,11.1725347 L6.85355339,11.1464466 L3.85355339,8.14644661 L3.14644661,8.85355339 L3.14644661,8.85355339 Z" id="Shape"></path>
                                </g>
                            </g>
                        </g>
                    </g>
                </g>
            </g>
        </g>
    </g>
</svg>