<?xml version="1.0" encoding="UTF-8" standalone="no"?>
<svg width="19px" height="19px" viewBox="0 0 19 19" version="1.1" xmlns="http://www.w3.org/2000/svg" xmlns:xlink="http://www.w3.org/1999/xlink" xmlns:sketch="http://www.bohemiancoding.com/sketch/ns">
    <!-- Generator: Sketch 3.3.2 (12043) - http://www.bohemiancoding.com/sketch -->
    <title>Shape + Shape</title>
    <desc>Created with Sketch.</desc>
    <defs></defs>
    <g id="presentation" stroke="none" stroke-width="1" fill="none" fill-rule="evenodd" sketch:type="MSPage">
        <g id="presentation-mode" sketch:type="MSArtboardGroup" transform="translate(-1331.000000, -340.000000)" fill="#FF8000">
            <g id="task-screen" sketch:type="MSLayerGroup" transform="translate(1040.000000, 330.000000)">
                <g id="topbar" sketch:type="MSShapeGroup">
                    <g>
                        <g id="done" transform="translate(287.000000, 6.000000)">
                            <g id="Shape-+-Shape" transform="translate(3.000000, 3.000000)">
                                <path d="M18.3810628,7.31584396 C20.1396236,11.6684347 18.0367468,16.6225019 13.684156,18.3810628 C9.33156527,20.1396236 4.37749806,18.0367468 2.61893724,13.684156 C0.860376412,9.33156527 2.96325318,4.37749806 7.31584396,2.61893724 C9.46218975,1.75175725 11.8172856,1.80159862 13.8975394,2.70854482 L14.2971874,1.79187612 C12.0401516,0.807856749 9.40451294,0.696525447 6.94123736,1.69175338 C2.07657708,3.65720371 -0.273696951,9.19410236 1.69175338,14.0587626 C3.65720371,18.9234229 9.19410236,21.273697 14.0587626,19.3082466 C18.9234229,17.3427963 21.273697,11.8058976 19.3082466,6.94123736 L18.3810628,7.31584396 Z" id="Shape"></path>
                                <path d="M5.64644661,10.3535534 L9.64644661,14.3535534 L10.0602043,14.767311 L10.404368,14.2940858 L18.404368,3.29408585 L17.595632,2.70591415 L9.59563196,13.7059142 L10.3535534,13.6464466 L6.35355339,9.64644661 L5.64644661,10.3535534 L5.64644661,10.3535534 Z" id="Shape"></path>
                            </g>
                        </g>
                    </g>
                </g>
            </g>
        </g>
    </g>
</svg>