<?xml version="1.0" encoding="UTF-8" standalone="no"?>
<svg width="16px" height="16px" viewBox="0 0 16 16" version="1.1" xmlns="http://www.w3.org/2000/svg" xmlns:xlink="http://www.w3.org/1999/xlink" xmlns:sketch="http://www.bohemiancoding.com/sketch/ns">
    <!-- Generator: Sketch 3.3.2 (12043) - http://www.bohemiancoding.com/sketch -->
    <title>active</title>
    <desc>Created with Sketch.</desc>
    <defs></defs>
    <g id="presentation" stroke="none" stroke-width="1" fill="none" fill-rule="evenodd" sketch:type="MSPage">
        <g id="presentation-mode" sketch:type="MSArtboardGroup" transform="translate(-1843.000000, -357.000000)" fill="#FF8000">
            <g id="timeline" sketch:type="MSLayerGroup" transform="translate(1690.000000, 330.000000)">
                <g id="top" sketch:type="MSShapeGroup">
                    <g>
                        <g id="main-row-bigger" transform="translate(0.000000, 20.000000)">
                            <g id="projects" transform="translate(153.000000, 7.000000)">
                                <g id="active">
                                    <path d="M0,9 L6,9 L6,11 L10,11 L10,9 L16,9 L16,12.9907455 C16,14.6527109 14.6633689,16 12.9905224,16 L3.00947762,16 C1.34738902,16 0,14.6503296 0,12.9907455 L0,9 Z" id="Rectangle-29" opacity="0.2"></path>
                                    <path d="M1,9 L6,9 L6,11 L10,11 L10,9 L15,9 L15,10 L11,10 L11,12 L5,12 L5,10 L1,10 L1,9 Z" id="Rectangle-25"></path>
                                    <path d="M0.993870469,9.10071656 L0.993870469,9.10071656 L1,8.99016571 L1,13.0068663 C1,14.0994918 1.90302991,15 3.00947762,15 L12.9905224,15 C14.1080332,15 15,14.1106814 15,13.0068663 L15,8.99016555 L15.0061295,9.1007164 L14.337726,3.09165844 C14.2103902,1.94688804 13.1493055,1 11.9966488,1 L4.00335124,1 C2.85251813,1 1.78915384,1.95098724 1.66227395,3.0916585 L0.993870469,9.10071656 Z M0,8.99016571 L0.668403482,2.98110765 C0.851539182,1.33468736 2.34237885,0 4.00335124,0 L11.9966488,0 C13.6553538,0 15.1475534,1.32652989 15.3315965,2.98110759 L16,8.99016555 L16,13.0068663 C16,14.6599284 14.6633689,16 12.9905224,16 L3.00947762,16 C1.34738902,16 0,14.6484334 0,13.0068663 L0,8.99016571 L0,8.99016571 Z" id="Shape"></path>
                                </g>
                            </g>
                        </g>
                    </g>
                </g>
            </g>
        </g>
    </g>
</svg>