<?xml version="1.0" encoding="UTF-8" standalone="no"?>
<svg width="12px" height="15px" viewBox="0 0 12 15" version="1.1" xmlns="http://www.w3.org/2000/svg" xmlns:xlink="http://www.w3.org/1999/xlink" xmlns:sketch="http://www.bohemiancoding.com/sketch/ns">
    <!-- Generator: Sketch 3.3.2 (12043) - http://www.bohemiancoding.com/sketch -->
    <title>Artboard 1</title>
    <desc>Created with Sketch.</desc>
    <defs>
        <filter x="-50%" y="-50%" width="200%" height="200%" filterUnits="objectBoundingBox" id="filter-1">
            <feOffset dx="0" dy="1" in="SourceAlpha" result="shadowOffsetOuter1"></feOffset>
            <feGaussianBlur stdDeviation="1" in="shadowOffsetOuter1" result="shadowBlurOuter1"></feGaussianBlur>
            <feColorMatrix values="0 0 0 0 0   0 0 0 0 0   0 0 0 0 0  0 0 0 0.07 0" in="shadowBlurOuter1" type="matrix" result="shadowMatrixOuter1"></feColorMatrix>
            <feMerge>
                <feMergeNode in="shadowMatrixOuter1"></feMergeNode>
                <feMergeNode in="SourceGraphic"></feMergeNode>
            </feMerge>
        </filter>
    </defs>
    <g id="Page-1" stroke="none" stroke-width="1" fill="none" fill-rule="evenodd" sketch:type="MSPage">
        <g id="Artboard-1" sketch:type="MSArtboardGroup">
            <g id="pause-+-Shape" sketch:type="MSLayerGroup">
                <path d="M1,1 L1,13 L4,13 L4,1 L1,1 Z M8,1 L8,13 L11,13 L11,1 L8,1 Z" id="pause" fill="#FFFFFF" filter="url(#filter-1)" sketch:type="MSShapeGroup"></path>
                <path d="M1,1 L1,13 L4,13 L4,1 L1,1 L1,1 Z M0,1 L0,1 L0,0 L1,0 L4,0 L5,0 L5,1 L5,13 L5,14 L4,14 L1,14 L0,14 L0,13 L0,1 Z M8,1 L8,13 L11,13 L11,1 L8,1 L8,1 Z M7,1 L7,1 L7,0 L8,0 L11,0 L12,0 L12,1 L12,13 L12,14 L11,14 L8,14 L7,14 L7,13 L7,1 Z" id="Shape" fill-opacity="0.1" fill="#000000" sketch:type="MSShapeGroup"></path>
            </g>
        </g>
    </g>
</svg>