<?xml version="1.0" encoding="UTF-8" standalone="no"?>
<svg width="17px" height="17px" viewBox="0 0 17 17" version="1.1" xmlns="http://www.w3.org/2000/svg" xmlns:xlink="http://www.w3.org/1999/xlink" xmlns:sketch="http://www.bohemiancoding.com/sketch/ns">
    <!-- Generator: Sketch 3.3.2 (12043) - http://www.bohemiancoding.com/sketch -->
    <title>active</title>
    <desc>Created with Sketch.</desc>
    <defs></defs>
    <g id="presentation" stroke="none" stroke-width="1" fill="none" fill-rule="evenodd" sketch:type="MSPage">
        <g id="presentation-mode" sketch:type="MSArtboardGroup" transform="translate(-1806.000000, -356.000000)" fill="#FF8000">
            <g id="timeline" sketch:type="MSLayerGroup" transform="translate(1690.000000, 330.000000)">
                <g id="top">
                    <g>
                        <g id="main-row-bigger" transform="translate(0.000000, 20.000000)">
                            <g id="timeline" transform="translate(116.000000, 6.000000)">
                                <g id="active">
                                    <text id="Type-something-Copy" sketch:type="MSTextLayer" font-family="Neue Haas Unica W1G" font-size="9" font-weight="normal" sketch:alignment="middle">
                                        <tspan x="3.442" y="14">28</tspan>
                                    </text>
                                    <rect id="Rectangle-25" sketch:type="MSShapeGroup" x="1" y="5" width="15" height="1"></rect>
                                    <rect id="Rectangle-23" opacity="0.3" sketch:type="MSShapeGroup" x="1" y="1" width="15" height="4"></rect>
                                    <path d="M1,4.00947762 L1,4.00947762 L1,13.9905224 C1,15.1075119 1.89191719,16 3.00012623,16 L13.9998738,16 C15.1093854,16 16,15.1047046 16,13.9905224 L16,4.00947762 C16,2.89248811 15.1080828,2 13.9998738,2 L3.00012623,2 C1.89061459,2 1,2.89529545 1,4.00947762 L1,4.00947762 Z M0,4.00947762 C0,2.34738902 1.33396149,1 3.00012623,1 L13.9998738,1 C15.6567977,1 17,2.33663106 17,4.00947762 L17,13.9905224 C17,15.652611 15.6660385,17 13.9998738,17 L3.00012623,17 C1.34320226,17 0,15.6633689 0,13.9905224 L0,4.00947762 L0,4.00947762 Z" id="Shape" sketch:type="MSShapeGroup"></path>
                                    <rect id="Rectangle-26" sketch:type="MSShapeGroup" x="4" y="0" width="1" height="4"></rect>
                                    <rect id="Rectangle-26-Copy" sketch:type="MSShapeGroup" x="12" y="0" width="1" height="4"></rect>
                                </g>
                            </g>
                        </g>
                    </g>
                </g>
            </g>
        </g>
    </g>
</svg>